<svg xmlns="http://www.w3.org/2000/svg" width="1500" height="720" viewBox="0 0 1500 720">
<rect width="100%" height="100%" fill="#ffffff"/>
<style>
.title { font: 700 26px Arial, sans-serif; fill: #1f2937; }
.subtitle { font: 600 20px Arial, sans-serif; fill: #374151; }
.label { font: 14px Arial, sans-serif; fill: #374151; }
.value { font: 13px Arial, sans-serif; fill: #111827; }
.axis { stroke: #d1d5db; stroke-width: 1; }
</style>
<text x="750.0" y="38" text-anchor="middle" class="title">EDA Cell 17: Top Topics and Claim Types</text>
<text x="230" y="76" class="subtitle">Top Topics</text>
<text x="990" y="76" class="subtitle">Claim Types</text>

<line x1="230" y1="98" x2="230" y2="665" class="axis"/>
<text x="218" y="129" text-anchor="end" class="label">Platform instability</text>
<rect x="230" y="110" width="350" height="28" rx="3" fill="#2f6f9f"/>
<text x="588" y="129" class="value">7,226</text>
<text x="218" y="170" text-anchor="end" class="label">Rumor circulation</text>
<rect x="230" y="151" width="346" height="28" rx="3" fill="#2f6f9f"/>
<text x="584" y="170" class="value">7,163</text>
<text x="218" y="211" text-anchor="end" class="label">Privacy concerns</text>
<rect x="230" y="192" width="346" height="28" rx="3" fill="#2f6f9f"/>
<text x="584" y="211" class="value">7,151</text>
<text x="218" y="252" text-anchor="end" class="label">Service disruption</text>
<rect x="230" y="233" width="344" height="28" rx="3" fill="#2f6f9f"/>
<text x="582" y="252" class="value">7,120</text>
<text x="218" y="293" text-anchor="end" class="label">User complaints</text>
<rect x="230" y="274" width="344" height="28" rx="3" fill="#2f6f9f"/>
<text x="582" y="293" class="value">7,120</text>
<text x="218" y="334" text-anchor="end" class="label">Official communication</text>
<rect x="230" y="315" width="344" height="28" rx="3" fill="#2f6f9f"/>
<text x="582" y="334" class="value">7,118</text>
<text x="218" y="375" text-anchor="end" class="label">Recovery signals</text>
<rect x="230" y="356" width="343" height="28" rx="3" fill="#2f6f9f"/>
<text x="581" y="375" class="value">7,102</text>
<line x1="990" y1="98" x2="990" y2="665" class="axis"/>
<text x="978" y="129" text-anchor="end" class="label">Observation</text>
<rect x="990" y="110" width="350" height="28" rx="3" fill="#8b5cf6"/>
<text x="1348" y="129" class="value">12,563</text>
<text x="978" y="170" text-anchor="end" class="label">Fact Claim</text>
<rect x="990" y="151" width="349" height="28" rx="3" fill="#8b5cf6"/>
<text x="1347" y="170" class="value">12,531</text>
<text x="978" y="211" text-anchor="end" class="label">Opinion</text>
<rect x="990" y="192" width="348" height="28" rx="3" fill="#8b5cf6"/>
<text x="1346" y="211" class="value">12,502</text>
<text x="978" y="252" text-anchor="end" class="label">Rumor</text>
<rect x="990" y="233" width="345" height="28" rx="3" fill="#8b5cf6"/>
<text x="1343" y="252" class="value">12,404</text>
<text x="750" y="690" text-anchor="middle" class="label">Counts are calculated from Silver.csv</text>
</svg>